<svg width="23" height="23" viewBox="0 0 23 23" fill="none" xmlns="http://www.w3.org/2000/svg">
<g clip-path="url(#clip0_46_20)">
<path d="M16.39 2.63303C13.3026 0.472222 9.25422 0.384765 6.07635 2.41026C5.88236 2.5339 5.69382 2.66432 5.51053 2.80111C6.55876 5.06074 8.74038 7.55822 11.5322 9.54868C14.3489 11.557 17.4348 12.8065 19.9166 13.0488C20.3678 11.6357 20.473 10.1252 20.2077 8.62267C19.7767 6.18159 18.4209 4.05443 16.39 2.63303Z" fill="#FF641A"/>
<path d="M0.829733 13.2553C0.772196 14.2314 0.774721 15.2464 0.838807 16.2935C1.04786 19.7087 1.82808 22.2714 1.86125 22.3788C1.98874 22.7924 2.38069 23.0666 2.81288 23.0448C3.0316 23.0337 7.30603 22.7943 11.6612 20.9248C9.67489 20.2855 7.60274 19.2285 5.63241 17.8237C3.71943 16.46 2.07521 14.8857 0.829733 13.2553Z" fill="#FF641A"/>
<path d="M17.445 14.5051C15.1234 13.8853 12.699 12.7041 10.434 11.0892C8.18923 9.48862 6.29382 7.59891 4.95283 5.62428C4.61551 5.12754 4.31921 4.63404 4.0648 4.14689C3.85315 4.39111 3.65291 4.64691 3.46538 4.9148C2.38805 6.45409 1.62705 8.29129 1.19976 10.3778C2.32959 12.4263 4.31581 14.5615 6.73089 16.2833C9.20267 18.0459 11.9034 19.2306 14.2328 19.6079C14.3421 19.5415 14.451 19.4742 14.5592 19.4053L14.5593 19.4052C16.2598 18.3213 17.6436 17.0267 18.6718 15.5577C18.8322 15.3285 18.9808 15.0936 19.1186 14.8541C18.5795 14.7748 18.0206 14.6587 17.445 14.5051Z" fill="#FF641A"/>
<path d="M16.3901 2.63291L11.506 9.52971C11.5148 9.536 11.5234 9.54238 11.5323 9.54872C14.3489 11.557 17.4349 12.8066 19.9167 13.0489C20.3678 11.6357 20.473 10.1253 20.2078 8.62272C19.7768 6.18152 18.421 4.05436 16.3901 2.63291Z" fill="#F03800"/>
<path d="M2.81345 23.0447C3.03217 23.0335 7.3066 22.7941 11.6618 20.9247C9.67546 20.2853 7.60331 19.2283 5.63298 17.8235L2.11734 22.788C2.30024 22.9602 2.54914 23.058 2.81345 23.0447Z" fill="#F03800"/>
<path d="M6.73117 16.2833C9.20296 18.0459 11.9037 19.2307 14.2331 19.608C14.3424 19.5415 14.4513 19.4743 14.5595 19.4053L14.5596 19.4052C16.2601 18.3214 17.6439 17.0268 18.6721 15.5577C18.8325 15.3286 18.9811 15.0936 19.1189 14.8541C18.5797 14.7748 18.0208 14.6587 17.4453 14.505C15.1236 13.8852 12.6992 12.704 10.4343 11.0891C10.427 11.084 10.4201 11.0787 10.413 11.0736L6.72623 16.2797C6.72792 16.2809 6.72957 16.2821 6.73117 16.2833Z" fill="#F03800"/>
</g>
<defs>
<clipPath id="clip0_46_20">
<rect width="23" height="23" fill="white"/>
</clipPath>
</defs>
</svg>
