<svg width="128" height="32" viewBox="0 0 128 32" fill="none" xmlns="http://www.w3.org/2000/svg">
<g clip-path="url(#clip0_122_24193)">
<path d="M22.8054 3.66318C18.51 0.656834 12.8774 0.535155 8.456 3.35324C8.18611 3.52526 7.92378 3.70671 7.66877 3.89703C9.12719 7.04086 12.1625 10.5156 16.0468 13.2849C19.9656 16.0791 24.2591 17.8176 27.7121 18.1547C28.3397 16.1886 28.4861 14.0871 28.1171 11.9966C27.5173 8.60031 25.631 5.64078 22.8054 3.66318Z" fill="#FF641A"/>
<path d="M1.15543 18.4424C1.07538 19.8006 1.07889 21.2127 1.16806 22.6696C1.45891 27.4212 2.54444 30.9866 2.59058 31.1361C2.76796 31.7114 3.31328 32.093 3.9146 32.0627C4.2189 32.0472 10.1659 31.7142 16.2253 29.1132C13.4617 28.2236 10.5787 26.753 7.83741 24.7985C5.17588 22.9012 2.88827 20.7109 1.15543 18.4424Z" fill="#FF641A"/>
<path d="M24.2719 20.1816C21.0418 19.3193 17.6687 17.6758 14.5174 15.429C11.3942 13.2022 8.75713 10.573 6.89141 7.82569C6.42209 7.13456 6.00984 6.44795 5.65588 5.77018C5.36141 6.10997 5.08282 6.46586 4.82191 6.83857C3.32302 8.9802 2.26423 11.5363 1.66974 14.4392C3.24168 17.2894 6.00512 20.2601 9.36522 22.6556C12.8042 25.1079 16.5618 26.7563 19.8027 27.2812C19.9547 27.1888 20.1062 27.0952 20.2568 26.9992L20.257 26.9991C22.6229 25.4911 24.5481 23.69 25.9786 21.646C26.2018 21.3272 26.4086 21.0004 26.6004 20.6671C25.8502 20.5569 25.0727 20.3954 24.2719 20.1816Z" fill="#FF641A"/>
<path d="M22.8044 3.66173L16.0091 13.2573C16.0214 13.266 16.0334 13.2749 16.0457 13.2837C19.9645 16.0779 24.258 17.8164 27.7109 18.1535C28.3386 16.1874 28.4849 14.0859 28.1159 11.9954C27.5163 8.59892 25.63 5.6394 22.8044 3.66173Z" fill="#F03800"/>
<path d="M3.91462 32.0617C4.21893 32.0462 10.166 31.7132 16.2253 29.1121C13.4618 28.2226 10.5788 26.752 7.83744 24.7975L2.94612 31.7046C3.20059 31.9442 3.54688 32.0802 3.91462 32.0617Z" fill="#F03800"/>
<path d="M9.36664 22.6533C12.8056 25.1056 16.5632 26.7539 19.8041 27.2788C19.9561 27.1864 20.1077 27.0929 20.2582 26.9969L20.2584 26.9968C22.6243 25.4888 24.5495 23.6876 25.98 21.6437C26.2032 21.3249 26.41 20.998 26.6018 20.6648C25.8516 20.5545 25.0739 20.3929 24.2732 20.1791C21.0431 19.3168 17.67 17.6733 14.5187 15.4265C14.5087 15.4194 14.4991 15.4121 14.4892 15.4049L9.35976 22.6482C9.36211 22.6499 9.36441 22.6516 9.36664 22.6533Z" fill="#F03800"/>
</g>
<path d="M47.032 24.5C46.184 24.5 45.44 24.372 44.8 24.116C44.176 23.844 43.688 23.404 43.336 22.796C42.984 22.172 42.808 21.324 42.808 20.252V15.116H40.744V12.404H42.808L43.168 9.116H46.048V12.404H49.24V15.116H46.048V20.3C46.048 20.844 46.168 21.22 46.408 21.428C46.648 21.636 47.056 21.74 47.632 21.74H49.216V24.5H47.032ZM51.9668 24.5V12.404H54.8468L55.1588 14.636C55.4468 14.108 55.8068 13.66 56.2388 13.292C56.6868 12.924 57.1908 12.636 57.7508 12.428C58.3268 12.22 58.9588 12.116 59.6468 12.116V15.548H58.5428C58.0628 15.548 57.6148 15.604 57.1988 15.716C56.7988 15.828 56.4468 16.012 56.1428 16.268C55.8388 16.508 55.6068 16.844 55.4468 17.276C55.2868 17.708 55.2068 18.252 55.2068 18.908V24.5H51.9668ZM61.8591 24.5V12.404H65.0991V24.5H61.8591ZM63.4911 10.748C62.9151 10.748 62.4351 10.58 62.0511 10.244C61.6831 9.892 61.4991 9.452 61.4991 8.924C61.4991 8.396 61.6831 7.964 62.0511 7.628C62.4351 7.276 62.9151 7.1 63.4911 7.1C64.0831 7.1 64.5631 7.276 64.9311 7.628C65.3151 7.964 65.5071 8.396 65.5071 8.924C65.5071 9.452 65.3151 9.892 64.9311 10.244C64.5631 10.58 64.0831 10.748 63.4911 10.748ZM68.3731 29.78V12.404H71.2531L71.6131 14.084C71.8691 13.732 72.1731 13.412 72.5251 13.124C72.8771 12.82 73.2931 12.58 73.7731 12.404C74.2691 12.212 74.8451 12.116 75.5011 12.116C76.6371 12.116 77.6371 12.396 78.5011 12.956C79.3651 13.516 80.0451 14.276 80.5411 15.236C81.0531 16.18 81.3091 17.26 81.3091 18.476C81.3091 19.692 81.0531 20.78 80.5411 21.74C80.0291 22.684 79.3411 23.428 78.4771 23.972C77.6131 24.516 76.6291 24.788 75.5251 24.788C74.6291 24.788 73.8531 24.628 73.1971 24.308C72.5571 23.972 72.0291 23.516 71.6131 22.94V29.78H68.3731ZM74.7571 21.956C75.3971 21.956 75.9571 21.812 76.4371 21.524C76.9331 21.236 77.3171 20.828 77.5891 20.3C77.8611 19.772 77.9971 19.164 77.9971 18.476C77.9971 17.788 77.8611 17.18 77.5891 16.652C77.3171 16.108 76.9331 15.692 76.4371 15.404C75.9571 15.1 75.3971 14.948 74.7571 14.948C74.1331 14.948 73.5731 15.1 73.0771 15.404C72.5971 15.692 72.2131 16.1 71.9251 16.628C71.6531 17.156 71.5171 17.764 71.5171 18.452C71.5171 19.14 71.6531 19.756 71.9251 20.3C72.2131 20.828 72.5971 21.236 73.0771 21.524C73.5731 21.812 74.1331 21.956 74.7571 21.956ZM91.2516 24.788C90.6276 24.788 90.0676 24.708 89.5716 24.548C89.0916 24.388 88.6596 24.172 88.2756 23.9C87.9076 23.612 87.5956 23.292 87.3396 22.94L86.9796 24.5H84.0996V7.22H87.3396V14.084C87.7236 13.524 88.2276 13.06 88.8516 12.692C89.4916 12.308 90.2836 12.116 91.2276 12.116C92.3476 12.116 93.3396 12.396 94.2036 12.956C95.0836 13.5 95.7716 14.252 96.2676 15.212C96.7796 16.156 97.0356 17.244 97.0356 18.476C97.0356 19.676 96.7796 20.756 96.2676 21.716C95.7716 22.676 95.0916 23.428 94.2276 23.972C93.3636 24.516 92.3716 24.788 91.2516 24.788ZM90.4836 21.956C91.1236 21.956 91.6836 21.812 92.1636 21.524C92.6596 21.22 93.0436 20.812 93.3156 20.3C93.5876 19.772 93.7236 19.164 93.7236 18.476C93.7236 17.788 93.5876 17.18 93.3156 16.652C93.0436 16.108 92.6596 15.692 92.1636 15.404C91.6836 15.1 91.1236 14.948 90.4836 14.948C89.8596 14.948 89.2996 15.1 88.8036 15.404C88.3236 15.692 87.9396 16.1 87.6516 16.628C87.3796 17.156 87.2436 17.764 87.2436 18.452C87.2436 19.14 87.3796 19.756 87.6516 20.3C87.9396 20.828 88.3236 21.236 88.8036 21.524C89.2996 21.812 89.8596 21.956 90.4836 21.956ZM105.634 24.788C104.418 24.788 103.338 24.532 102.394 24.02C101.466 23.492 100.738 22.764 100.21 21.836C99.6982 20.892 99.4422 19.804 99.4422 18.572C99.4422 17.308 99.6982 16.196 100.21 15.236C100.738 14.26 101.466 13.5 102.394 12.956C103.322 12.396 104.402 12.116 105.634 12.116C106.834 12.116 107.882 12.38 108.778 12.908C109.674 13.436 110.37 14.148 110.866 15.044C111.362 15.94 111.61 16.956 111.61 18.092C111.61 18.252 111.61 18.436 111.61 18.644C111.61 18.836 111.594 19.036 111.562 19.244H101.746V17.276H108.346C108.298 16.492 108.018 15.876 107.506 15.428C107.01 14.98 106.386 14.756 105.634 14.756C105.09 14.756 104.586 14.884 104.122 15.14C103.658 15.38 103.29 15.756 103.018 16.268C102.762 16.78 102.634 17.428 102.634 18.212V18.908C102.634 19.564 102.754 20.14 102.994 20.636C103.25 21.116 103.602 21.492 104.05 21.764C104.498 22.02 105.018 22.148 105.61 22.148C106.202 22.148 106.69 22.02 107.074 21.764C107.474 21.508 107.77 21.18 107.962 20.78H111.274C111.05 21.532 110.674 22.212 110.146 22.82C109.618 23.428 108.97 23.908 108.202 24.26C107.434 24.612 106.578 24.788 105.634 24.788ZM120.072 24.788C118.856 24.788 117.776 24.532 116.832 24.02C115.904 23.492 115.176 22.764 114.648 21.836C114.136 20.892 113.88 19.804 113.88 18.572C113.88 17.308 114.136 16.196 114.648 15.236C115.176 14.26 115.904 13.5 116.832 12.956C117.76 12.396 118.84 12.116 120.072 12.116C121.272 12.116 122.32 12.38 123.216 12.908C124.112 13.436 124.808 14.148 125.304 15.044C125.8 15.94 126.048 16.956 126.048 18.092C126.048 18.252 126.048 18.436 126.048 18.644C126.048 18.836 126.032 19.036 126 19.244H116.184V17.276H122.784C122.736 16.492 122.456 15.876 121.944 15.428C121.448 14.98 120.824 14.756 120.072 14.756C119.528 14.756 119.024 14.884 118.56 15.14C118.096 15.38 117.728 15.756 117.456 16.268C117.2 16.78 117.072 17.428 117.072 18.212V18.908C117.072 19.564 117.192 20.14 117.432 20.636C117.688 21.116 118.04 21.492 118.488 21.764C118.936 22.02 119.456 22.148 120.048 22.148C120.64 22.148 121.128 22.02 121.512 21.764C121.912 21.508 122.208 21.18 122.4 20.78H125.712C125.488 21.532 125.112 22.212 124.584 22.82C124.056 23.428 123.408 23.908 122.64 24.26C121.872 24.612 121.016 24.788 120.072 24.788Z" fill="#F03800"/>
<defs>
<clipPath id="clip0_122_24193">
<rect width="32" height="32" fill="white"/>
</clipPath>
</defs>
</svg>
